<svg width="110" height="145" viewBox="0 0 110 145" fill="none" xmlns="http://www.w3.org/2000/svg">
  <rect width="110" height="145" fill="white" stroke="#ECECEC" stroke-width="1" rx="4"/>
  <text x="55" y="22" font-family="Georgia, serif" font-size="4.2" font-weight="bold" fill="#111827" text-anchor="middle">OPT: Open Pre-trained Transformer...</text>
  <text x="55" y="30" font-family="sans-serif" font-size="3" fill="#6B7280" text-anchor="middle">Zhang et al. • arXiv 2022</text>
  
  <rect x="15" y="42" width="80" height="2" rx="1" fill="#D1D5DB"/>
  <rect x="15" y="48" width="75" height="2" rx="1" fill="#D1D5DB"/>
  <rect x="15" y="54" width="60" height="2" rx="1" fill="#D1D5DB"/>

  <rect x="15" y="66" width="36" height="1.5" rx="0.5" fill="#E5E7EB"/>
  <rect x="15" y="72" width="36" height="1.5" rx="0.5" fill="#E5E7EB"/>
  <rect x="15" y="78" width="36" height="1.5" rx="0.5" fill="#E5E7EB"/>
  <rect x="15" y="84" width="32" height="1.5" rx="0.5" fill="#E5E7EB"/>
  <rect x="15" y="90" width="36" height="1.5" rx="0.5" fill="#E5E7EB"/>

  <rect x="59" y="66" width="36" height="1.5" rx="0.5" fill="#E5E7EB"/>
  <rect x="59" y="72" width="36" height="1.5" rx="0.5" fill="#E5E7EB"/>
  <rect x="59" y="78" width="36" height="1.5" rx="0.5" fill="#E5E7EB"/>
  <rect x="59" y="84" width="34" height="1.5" rx="0.5" fill="#E5E7EB"/>
  <rect x="59" y="90" width="36" height="1.5" rx="0.5" fill="#E5E7EB"/>
</svg>